<svg xmlns="http://www.w3.org/2000/svg" width="169" height="28" fill="none"><path fill="#fff" d="M4.416 20.962h-.01C.347 20.612-.027 18.212 0 17.195v-7.058C.25 6.979 3.83 6.942 3.981 6.942h8.634v2.816H5.487c-.693 0-1.201.16-1.508.477-.372.383-.358.908-.353 1.082l.001.048v5.274c0 1.402 1.932 1.489 1.951 1.489h7.036v2.834h-8.2.002Z"/><path fill="#fff" d="M12.35 7.207H3.982c-.235 0-3.491.079-3.715 2.95v7.006c0 .249-.25 3.154 4.16 3.534h7.923v-2.303H5.579c-.236 0-2.217-.192-2.217-1.753v-5.275c0-.21-.166-1.872 2.125-1.872h6.863V7.208ZM37.466 20.962V.001h-3.683v20.961h3.683Z"/><path fill="#fff" d="M37.201.266H34.05v20.431H37.2V.266ZM44.458 20.962V.001h-3.683v20.961h3.683Z"/><path fill="#fff" d="M44.193.266h-3.152v20.431h3.152V.266ZM78.697 20.962v-8.746c0-1.483-1.006-1.794-1.851-1.794h-5.955c-.512 0-.512.214-.512.341v10.2h-3.653V0h3.653v6.941h7.2c2.197 0 3.342.93 3.916 1.711.618.84.838 1.858.838 2.529v9.78h-3.636Z"/><path fill="#fff" d="M66.99.266v20.431h3.125v-9.934c0-.157.017-.606.776-.606h5.955c.772 0 2.116.267 2.116 2.06v8.481h3.107v-9.516c0-1.025-.602-3.974-4.49-3.974h-7.464V.266H66.99ZM90.123 20.962c-3.616 0-4.898-2.004-4.898-3.72v-6.597c0-2.558 2.32-3.703 4.619-3.703h6.47c2.3 0 4.62 1.145 4.62 3.703v6.597c0 1.716-1.283 3.72-4.899 3.72h-5.912Zm.794-11.204c-1.65 0-1.986 1.01-1.986 1.28v5.876c0 .726.986 1.214 1.907 1.214h4.481c.921 0 1.908-.488 1.908-1.214v-5.876c0-.27-.337-1.28-1.986-1.28h-4.324Z"/><path fill="#fff" d="M96.314 7.207h-6.471c-1.832 0-4.354.846-4.354 3.438v6.597c0 1.753 1.335 3.455 4.633 3.455h5.912c3.299 0 4.633-1.701 4.633-3.455v-6.597c0-2.592-2.522-3.438-4.354-3.438Zm1.178 9.707c0 .903-1.126 1.48-2.173 1.48h-4.48c-1.048 0-2.174-.577-2.174-1.48v-5.876c0-.38.42-1.544 2.252-1.544h4.324c1.832 0 2.25 1.164 2.25 1.544v5.876ZM115.45 20.962v-9.13c0-.997-.964-1.41-1.48-1.41h-5.2c-.516 0-1.48.414-1.48 1.41v9.13h-3.671V10.82c0-1.499 1.218-3.878 4.488-3.878h6.527c3.27 0 4.488 2.378 4.488 3.878v10.142H115.45Z"/><path fill="#fff" d="M114.633 7.207h-6.527c-3.176 0-4.223 2.287-4.223 3.613v9.877h3.141v-8.865c0-1.187 1.117-1.675 1.746-1.675h5.2c.628 0 1.746.489 1.746 1.675v8.865h3.141V10.82c0-1.326-1.047-3.613-4.223-3.613h-.001ZM47.739 27.998v-17.6c0-1.39 1.08-3.455 4.056-3.455h7.355c1.565 0 4.213.727 4.213 3.454v6.872c0 1.38-.705 3.694-5.43 3.694h-6.541v7.036h-3.654Zm5.518-18.24c-1.755 0-1.864 1.293-1.864 1.306v6.702c0 .235.292.36.364.363h6.194c1.48 0 1.812-1.031 1.812-1.393v-5.707c0-1.216-1.759-1.27-1.777-1.27h-4.73Z"/><path fill="#fff" d="M59.15 7.207h-7.355c-2.774 0-3.79 1.867-3.79 3.19v17.336h3.123v-7.036h6.807c4.175 0 5.166-1.846 5.166-3.43v-6.871c0-2.775-2.928-3.19-3.949-3.19l-.001.001Zm.878 9.529c0 .523-.453 1.658-2.076 1.658h-6.195c-.175 0-.629-.21-.629-.628v-6.702c0-.279.315-1.57 2.13-1.57h4.729c.471 0 2.042.244 2.042 1.535v5.707ZM19.907 20.962c-2.642 0-4.489-1.551-4.489-3.773v-6.387c0-1.588.714-2.75 2.065-3.363 1.097-.497 2.291-.497 2.683-.497h6.075c1.939 0 3.312.494 4.082 1.469.686.867.686 1.87.686 2.2v4.732H19.037v.748c0 .853.237 1.443.705 1.754.385.256.861.286 1.187.286l.114-.001H31.008v2.834H19.905l.002-.002Zm7.411-8.383v-1.71c0-.695-.93-1.11-1.831-1.11h-4.202c-1.866 0-2.248 1.02-2.248 1.293v1.528H27.318Z"/><path fill="#fff" d="M30.744 15.078V10.61c0-.89-.174-3.403-4.502-3.403h-5.986c-.698 0-4.572-.07-4.572 3.595v6.387c0 1.99 1.64 3.508 4.223 3.508h10.838v-2.303H21.13c-.524 0-2.357.14-2.357-2.303v-1.013h11.972ZM18.773 11.05c0-.353.431-1.557 2.513-1.557h4.201c1.021 0 2.097.497 2.097 1.374v1.976h-8.811v-1.793ZM126.744 20.953c-2.642 0-4.488-1.551-4.488-3.772v-6.388c0-1.588.714-2.75 2.064-3.363 1.097-.497 2.291-.497 2.683-.497h6.076c1.938 0 3.312.494 4.081 1.47.686.866.686 1.87.686 2.199v4.733h-11.972v.747c0 .853.238 1.443.705 1.754.385.256.862.286 1.187.286l.115-.001h9.965v2.834h-11.102v-.002Zm7.429-8.374v-1.71c0-.695-.931-1.11-1.831-1.11h-4.202c-1.866 0-2.247 1.02-2.247 1.293v1.528h8.28Z"/><path fill="#fff" d="M137.582 15.069v-4.468c0-.89-.175-3.403-4.503-3.403h-5.985c-.698 0-4.573-.07-4.573 3.595v6.388c0 1.989 1.641 3.508 4.224 3.508h10.837v-2.304h-9.615c-.523 0-2.356.14-2.356-2.303V15.07h11.971v-.001Zm-11.954-4.018c0-.353.431-1.557 2.513-1.557h4.201c1.021 0 2.097.497 2.097 1.374v1.976h-8.811v-1.793ZM144.158.001V28h24.546V0h-24.546Zm24.332 27.783h-24.117V.215h24.117v27.569Z"/><path fill="#fff" d="M148.322 10.981V3.438h16.218v6.524l-2.286-2.83h-10.238v1.725l4.642 5.039-.296.424-8.04-3.339Z"/><path fill="#fff" d="M148.322 24.562v-6.77l2.542 3.076h9.983v-3.137l-4.519-5.181.313-.414 7.899 3.73v8.696h-16.218Z"/></svg>